<?xml version="1.0" encoding="UTF-8" standalone="no"?>
<svg
   xmlns:dc="http://purl.org/dc/elements/1.1/"
   xmlns:cc="http://creativecommons.org/ns#"
   xmlns:rdf="http://www.w3.org/1999/02/22-rdf-syntax-ns#"
   xmlns:svg="http://www.w3.org/2000/svg"
   xmlns="http://www.w3.org/2000/svg"
   xmlns:sodipodi="http://sodipodi.sourceforge.net/DTD/sodipodi-0.dtd"
   xmlns:inkscape="http://www.inkscape.org/namespaces/inkscape"
   id="Layer_2"
   enable-background="new 0 0 24 24"
   height="700"
   viewBox="0 0 32.8125 32.8125"
   width="700"
   version="1.1"
   sodipodi:docname="bell (1).svg"
   inkscape:export-filename="C:\Users\ravin\Downloads\bell (1).png"
   inkscape:export-xdpi="95.900002"
   inkscape:export-ydpi="95.900002"
   inkscape:version="1.0.2-2 (e86c870879, 2021-01-15)">
  <metadata
     id="metadata19">
    <rdf:RDF>
      <cc:Work
         rdf:about="">
        <dc:format>image/svg+xml</dc:format>
        <dc:type
           rdf:resource="http://purl.org/dc/dcmitype/StillImage" />
        <dc:title></dc:title>
      </cc:Work>
    </rdf:RDF>
  </metadata>
  <defs
     id="defs17" />
  <sodipodi:namedview
     pagecolor="#ffffff"
     bordercolor="#666666"
     borderopacity="1"
     objecttolerance="10"
     gridtolerance="10"
     guidetolerance="10"
     inkscape:pageopacity="0"
     inkscape:pageshadow="2"
     inkscape:window-width="1920"
     inkscape:window-height="1001"
     id="namedview15"
     showgrid="false"
     inkscape:zoom="0.57314319"
     inkscape:cx="650.21816"
     inkscape:cy="309.49207"
     inkscape:window-x="-9"
     inkscape:window-y="-9"
     inkscape:window-maximized="1"
     inkscape:current-layer="Layer_2" />
  <g
     id="g4"
     transform="rotate(30,5.9532258,19.438235)"
     style="fill:#ffffff">
    <path
       d="M 13.5,4.18 C 13.224,4.18 13,3.956 13,3.68 V 2 C 13,1.449 12.551,1 12,1 11.449,1 11,1.449 11,2 v 1.68 c 0,0.276 -0.224,0.5 -0.5,0.5 C 10.224,4.18 10,3.957 10,3.68 V 2 c 0,-1.103 0.897,-2 2,-2 1.103,0 2,0.897 2,2 v 1.68 c 0,0.277 -0.224,0.5 -0.5,0.5 z"
       id="path2"
       style="fill:#ffffff" />
  </g>
  <g
     id="g8"
     transform="rotate(30,3.6998168,24.45847)"
     style="fill:#ffffff">
    <path
       d="M 12,24 C 10.07,24 8.5,22.43 8.5,20.5 8.5,20.224 8.724,20 9,20 c 0.276,0 0.5,0.224 0.5,0.5 0,1.378 1.122,2.5 2.5,2.5 1.378,0 2.5,-1.122 2.5,-2.5 0,-0.276 0.224,-0.5 0.5,-0.5 0.276,0 0.5,0.224 0.5,0.5 0,1.93 -1.57,3.5 -3.5,3.5 z"
       id="path6"
       style="fill:#ffffff" />
  </g>
  <g
     id="g12"
     transform="rotate(30,5.9532258,19.438235)"
     style="fill:#ffffff">
    <path
       d="M 20.5,21 H 3.5 C 2.673,21 2,20.327 2,19.5 2,19.061 2.191,18.646 2.525,18.36 4.101,17.028 5,15.09 5,13.038 V 10 c 0,-3.86 3.14,-7 7,-7 3.86,0 7,3.14 7,7 v 3.038 c 0,2.053 0.899,3.99 2.467,5.315 C 21.809,18.646 22,19.061 22,19.5 22,20.327 21.328,21 20.5,21 Z M 12,4 C 8.691,4 6,6.691 6,10 v 3.038 C 6,15.386 4.972,17.601 3.179,19.117 3.064,19.215 3,19.354 3,19.5 3,19.776 3.224,20 3.5,20 h 17 C 20.776,20 21,19.776 21,19.5 21,19.354 20.936,19.215 20.825,19.12 19.029,17.601 18,15.385 18,13.038 V 10 C 18,6.691 15.309,4 12,4 Z"
       id="path10"
       style="fill:#ffffff" />
  </g>
  <path
     id="path21"
     style="color:#000000;font-style:normal;font-variant:normal;font-weight:normal;font-stretch:normal;font-size:medium;line-height:normal;font-family:sans-serif;font-variant-ligatures:normal;font-variant-position:normal;font-variant-caps:normal;font-variant-numeric:normal;font-variant-alternates:normal;font-variant-east-asian:normal;font-feature-settings:normal;font-variation-settings:normal;text-indent:0;text-align:start;text-decoration:none;text-decoration-line:none;text-decoration-style:solid;text-decoration-color:#000000;letter-spacing:normal;word-spacing:normal;text-transform:none;writing-mode:lr-tb;direction:ltr;text-orientation:mixed;dominant-baseline:auto;baseline-shift:baseline;text-anchor:start;white-space:normal;shape-padding:0;shape-margin:0;inline-size:0;clip-rule:nonzero;display:inline;overflow:visible;visibility:visible;opacity:1;isolation:auto;mix-blend-mode:normal;color-interpolation:sRGB;color-interpolation-filters:linearRGB;solid-color:#000000;solid-opacity:1;vector-effect:none;fill:#ffffff;fill-opacity:1;fill-rule:nonzero;stroke:none;stroke-width:0.999998;stroke-linecap:butt;stroke-linejoin:miter;stroke-miterlimit:4;stroke-dasharray:none;stroke-dashoffset:0;stroke-opacity:1;color-rendering:auto;image-rendering:auto;shape-rendering:auto;text-rendering:auto;enable-background:accumulate;stop-color:#000000;stop-opacity:1"
     d="m 12.899749,12.345587 c -0.04345,0.582775 0.241862,1.167727 0.780999,1.478997 0.539136,0.311271 1.18752,0.265393 1.67,-0.06391 l -0.211855,-0.122317 c -0.403829,0.232176 -0.916345,0.248701 -1.349747,-0.0015 -0.433402,-0.250225 -0.675349,-0.70234 -0.676194,-1.168154 z" />
  <path
     id="path865"
     style="color:#000000;font-style:normal;font-variant:normal;font-weight:normal;font-stretch:normal;font-size:medium;line-height:normal;font-family:sans-serif;font-variant-ligatures:normal;font-variant-position:normal;font-variant-caps:normal;font-variant-numeric:normal;font-variant-alternates:normal;font-variant-east-asian:normal;font-feature-settings:normal;font-variation-settings:normal;text-indent:0;text-align:start;text-decoration:none;text-decoration-line:none;text-decoration-style:solid;text-decoration-color:#000000;letter-spacing:normal;word-spacing:normal;text-transform:none;writing-mode:lr-tb;direction:ltr;text-orientation:mixed;dominant-baseline:auto;baseline-shift:baseline;text-anchor:start;white-space:normal;shape-padding:0;shape-margin:0;inline-size:0;clip-rule:nonzero;display:inline;overflow:visible;visibility:visible;opacity:1;isolation:auto;mix-blend-mode:normal;color-interpolation:sRGB;color-interpolation-filters:linearRGB;solid-color:#000000;solid-opacity:1;vector-effect:none;fill:#ffffff;fill-opacity:1;fill-rule:nonzero;stroke:none;stroke-width:0.999998;stroke-linecap:butt;stroke-linejoin:miter;stroke-miterlimit:4;stroke-dasharray:none;stroke-dashoffset:0;stroke-opacity:1;color-rendering:auto;image-rendering:auto;shape-rendering:auto;text-rendering:auto;enable-background:accumulate;stop-color:#000000;stop-opacity:1"
     d="m 16.605921,14.485346 c -0.04345,0.582775 0.241862,1.167726 0.780998,1.478996 0.539136,0.311271 1.18752,0.265393 1.670001,-0.06391 l -0.211855,-0.122314 c -0.40383,0.232175 -0.916346,0.248701 -1.349748,-0.0015 -0.433402,-0.250225 -0.675349,-0.70234 -0.676193,-1.168154 z" />
  <ellipse
     style="fill:#ffffff;fill-opacity:1;stroke:none;stroke-width:0.173438;stroke-miterlimit:4;stroke-dasharray:none;stroke-opacity:1"
     id="path867"
     cx="12.681794"
     cy="19.418715"
     rx="1.0120481"
     ry="0.9975903" />
  <text
     xml:space="preserve"
     style="font-style:normal;font-variant:normal;font-weight:bold;font-stretch:normal;font-size:4.98768px;line-height:1.25;font-family:'Reem Kufi';-inkscape-font-specification:'Reem Kufi Bold';fill:#ffffff;fill-opacity:1;stroke:none;stroke-width:0.398438;stroke-miterlimit:4;stroke-dasharray:none;"
     x="19.063591"
     y="17.52684"
     id="text871"
     transform="scale(1.2580057,0.79490896)"><tspan
       sodipodi:role="line"
       id="tspan869"
       x="19.063591"
       y="17.52684"
       style="font-style:normal;font-variant:normal;font-weight:bold;font-stretch:normal;font-family:'Reem Kufi';-inkscape-font-specification:'Reem Kufi Bold';stroke-width:0.398438;stroke-miterlimit:4;stroke-dasharray:none;fill:#ffffff;">Z</tspan></text>
  <text
     xml:space="preserve"
     style="font-style:normal;font-variant:normal;font-weight:bold;font-stretch:normal;font-size:3.14358px;line-height:1.25;font-family:'Reem Kufi';-inkscape-font-specification:'Reem Kufi Bold';fill:#ffffff;fill-opacity:1;stroke:none;stroke-width:0.398438;stroke-miterlimit:4;stroke-dasharray:none;"
     x="22.597416"
     y="14.574636"
     id="text875"
     transform="scale(1.2580057,0.79490896)"><tspan
       sodipodi:role="line"
       id="tspan873"
       x="22.597416"
       y="14.574636"
       style="font-style:normal;font-variant:normal;font-weight:bold;font-stretch:normal;font-family:'Reem Kufi';-inkscape-font-specification:'Reem Kufi Bold';stroke-width:0.398438;stroke-miterlimit:4;stroke-dasharray:none;fill:#ffffff;">Z</tspan></text>
  <text
     xml:space="preserve"
     style="font-style:normal;font-variant:normal;font-weight:bold;font-stretch:normal;font-size:1.98711px;line-height:1.25;font-family:'Reem Kufi';-inkscape-font-specification:'Reem Kufi Bold';fill:#ffffff;fill-opacity:1;stroke:none;stroke-width:0.398438;stroke-miterlimit:4;stroke-dasharray:none;"
     x="24.171743"
     y="10.683337"
     id="text879"
     transform="scale(1.2580057,0.79490896)"><tspan
       sodipodi:role="line"
       id="tspan877"
       x="24.171743"
       y="10.683337"
       style="font-style:normal;font-variant:normal;font-weight:bold;font-stretch:normal;font-family:'Reem Kufi';-inkscape-font-specification:'Reem Kufi Bold';stroke-width:0.398438;stroke-miterlimit:4;stroke-dasharray:none;fill:#ffffff;">Z</tspan></text>
</svg>
