<svg id="Capa_1" enable-background="new 0 0 494.144 494.144" height="512" viewBox="0 0 494.144 494.144" width="512" xmlns="http://www.w3.org/2000/svg"><g><ellipse cx="234.93" cy="440.505" fill="#ffe266" rx="53.639" ry="53.639" transform="matrix(.947 -.321 .321 .947 -129.057 98.818)"/><path d="m234.93 386.866c-3.415 0-6.751.333-9.988.943 15.709 3.674 27.412 17.759 27.412 34.588 0 19.624-15.908 35.531-35.531 35.531-16.829 0-30.915-11.703-34.588-27.412-.61 3.238-.943 6.574-.943 9.988 0 29.624 24.015 53.639 53.639 53.639s53.639-24.015 53.639-53.639c-.001-29.623-24.016-53.638-53.64-53.638z" fill="#efaa66"/><path d="m380.097 13.406c-14.868-8.584-33.879-3.49-42.463 11.378l-25.756 44.611c-8.584 14.868-3.49 33.879 11.378 42.463 14.868 8.584 33.879 3.49 42.463-11.378l25.756-44.611c8.584-14.868 3.49-33.879-11.378-42.463z" fill="#ffe266"/><path d="m365.368 462.098c-21.248-33.697 51.59-182.819 52.53-184.723 39.456-79.955 8.943-175.613-68.153-213.658s-171.58-4.07-211.036 75.885c-2.021 4.096-72.197 153.591-112.543 155.107z" fill="#ffe266"/><path d="m349.745 63.717c-8.38-4.136-16.967-7.418-25.665-9.885 41.305 32.833 55.065 92.492 29.931 143.426-.371.753-16.145 33.042-28.06 66.391-11.887 33.272-49.964 48.896-81.648 33.261l-150.293-74.167c-22.268 36.451-48.487 71.239-67.844 71.966l339.202 167.388c-21.248-33.697 51.59-182.819 52.53-184.722 39.456-79.955 8.943-175.613-68.153-213.658z" fill="#efaa66"/><g><path d="m195.075 145.292c-2.209 0-4.432-.728-6.283-2.226-4.294-3.474-4.959-9.77-1.486-14.064 9.368-11.58 20.433-21.575 32.887-29.708 4.623-3.021 10.821-1.719 13.84 2.906 3.02 4.624 1.719 10.821-2.906 13.84-10.706 6.991-20.218 15.583-28.272 25.54-1.976 2.444-4.866 3.712-7.78 3.712z" fill="#fff"/></g><g><path d="m256.119 103.032c-4.206 0-8.119-2.674-9.5-6.888-1.72-5.248 1.14-10.897 6.388-12.617 3.8-1.246 7.707-2.338 11.612-3.248 5.378-1.254 10.755 2.09 12.008 7.469 1.254 5.378-2.09 10.755-7.469 12.009-3.337.778-6.676 1.711-9.922 2.775-1.034.338-2.085.5-3.117.5z" fill="#fff"/></g><path d="m337.811 479.745-310.999-153.471c-12.072-5.957-17.029-20.573-11.072-32.645l.392-.794c5.957-12.072 20.573-17.029 32.645-11.072l310.999 153.471c12.072 5.957 17.029 20.573 11.072 32.645l-.392.794c-5.957 12.073-20.572 17.03-32.645 11.072z" fill="#ffe266"/><g><path d="m282.665 462.538c-1.486 0-2.995-.332-4.418-1.035l-85.491-42.188c-4.953-2.444-6.986-8.44-4.542-13.393 2.444-4.952 8.439-6.987 13.393-4.543l85.491 42.188c4.953 2.444 6.986 8.44 4.543 13.393-1.744 3.53-5.29 5.578-8.976 5.578z" fill="#d0844b"/></g><path d="m40.066 98.533 8.214 23.098c.352.989 1.048 1.773 1.927 2.169l20.521 9.246c2.899 1.306 2.899 5.925 0 7.232l-20.521 9.246c-.879.396-1.575 1.179-1.927 2.168l-8.214 23.098c-1.16 3.263-5.265 3.263-6.425 0l-8.214-23.098c-.352-.989-1.048-1.773-1.927-2.168l-20.521-9.246c-2.899-1.306-2.899-5.925 0-7.232l20.521-9.246c.879-.396 1.575-1.18 1.927-2.169l8.214-23.098c1.16-3.263 5.264-3.263 6.425 0z" fill="#fef2a8"/><path d="m142.053 1.815 6.093 17.133c.261.734.777 1.315 1.429 1.609l15.222 6.858c2.151.969 2.151 4.395 0 5.364l-15.222 6.858c-.652.294-1.168.875-1.429 1.609l-6.093 17.133c-.861 2.421-3.905 2.421-4.766 0l-6.093-17.133c-.261-.734-.777-1.315-1.429-1.609l-15.222-6.858c-2.15-.969-2.15-4.395 0-5.364l15.222-6.858c.652-.294 1.168-.875 1.429-1.609l6.093-17.133c.861-2.42 3.905-2.42 4.766 0z" fill="#fef2a8"/><g fill="#ffe266"><ellipse cx="475.403" cy="79.825" rx="17.937" ry="17.937" transform="matrix(.217 -.976 .976 .217 294.558 526.675)"/><circle cx="55.259" cy="49.323" r="7.737"/></g></g></svg>