<svg xmlns="http://www.w3.org/2000/svg" width="64" height="64" enable-background="new 0 0 64 64" viewBox="0 0 64 64"><path d="M62.707,23.293l-22-22c-0.391-0.391-1.023-0.391-1.414,0l-38,38c-0.286,0.286-0.372,0.716-0.217,1.09S1.596,41,2,41h4v5
			c0,0.553,0.448,1,1,1h4v5c0,0.553,0.448,1,1,1h5v4c0,0.553,0.448,1,1,1h5v4c0,0.404,0.244,0.77,0.617,0.924
			C23.741,62.976,23.871,63,24,63c0.26,0,0.516-0.102,0.707-0.293l38-38C63.098,24.316,63.098,23.684,62.707,23.293z M24,56h-5v-4
			c0-0.553-0.448-1-1-1h-5v-5c0-0.553-0.448-1-1-1H8v-5c0-0.553-0.448-1-1-1H4.414L10,33.414L30.586,54L25,59.586V57
			C25,56.447,24.552,56,24,56z M32,52.586L11.414,32L40,3.414L60.586,24L32,52.586z"/><path d="M33.649 23.838c.548.547 1.278.848 2.056.848.778 0 1.509-.301 2.058-.849 1.133-1.135 1.132-2.98-.002-4.114l-1.798-1.798c-1.096-1.096-3.021-1.094-4.113-.001C31.302 18.472 31 19.202 31 19.98s.302 1.509.85 2.057L33.649 23.838zM33.265 19.339c.169-.17.397-.264.642-.264s.473.094.643.264l1.798 1.798c.354.354.354.932.001 1.285-.34.338-.944.339-1.284.001l-1.8-1.8C33.094 20.453 33 20.225 33 19.98S33.094 19.509 33.265 19.339zM48.038 25.635c.548.548 1.278.85 2.057.85.777 0 1.508-.302 2.056-.849.548-.548.851-1.278.85-2.058 0-.777-.302-1.508-.85-2.056l-1.8-1.8c-1.096-1.096-3.017-1.096-4.11 0-1.134 1.134-1.135 2.979-.001 4.114L48.038 25.635zM47.655 21.137c.169-.17.396-.264.64-.264s.472.094.642.264l1.8 1.8c.17.17.264.398.264.643 0 .243-.093.472-.264.642-.34.34-.944.34-1.284 0l-1.798-1.798C47.3 22.068 47.3 21.491 47.655 21.137zM39.03 11.997c-.211-.51-.799-.75-1.307-.541-.51.211-.752.796-.541 1.307l7.787 18.8c.159.385.532.617.924.617.128 0 .258-.024.383-.076.51-.211.752-.796.541-1.307L39.03 11.997zM27.707 24.293c-.391-.391-1.023-.391-1.414 0l-8 8c-.391.391-.391 1.023 0 1.414C18.488 33.902 18.744 34 19 34s.512-.098.707-.293l8-8C28.098 25.316 28.098 24.684 27.707 24.293zM30.707 27.293c-.391-.391-1.023-.391-1.414 0l-8 8c-.391.391-.391 1.023 0 1.414C21.488 36.902 21.744 37 22 37s.512-.098.707-.293l8-8C31.098 28.316 31.098 27.684 30.707 27.293zM33.707 30.293c-.391-.391-1.023-.391-1.414 0l-8 8c-.391.391-.391 1.023 0 1.414C24.488 39.902 24.744 40 25 40s.512-.098.707-.293l8-8C34.098 31.316 34.098 30.684 33.707 30.293zM36.707 33.293c-.391-.391-1.023-.391-1.414 0l-8 8c-.391.391-.391 1.023 0 1.414C27.488 42.902 27.744 43 28 43s.512-.098.707-.293l8-8C37.098 34.316 37.098 33.684 36.707 33.293zM38.293 36.293l-8 8c-.391.391-.391 1.023 0 1.414C30.488 45.902 30.744 46 31 46s.512-.098.707-.293l8-8c.391-.391.391-1.023 0-1.414S38.684 35.902 38.293 36.293z"/></svg>