<svg height="512" viewBox="0 0 55 60" width="512" xmlns="http://www.w3.org/2000/svg"><g id="Page-1" fill="none" fill-rule="evenodd"><g id="004---messgae" fill="rgb(0,0,0)" fill-rule="nonzero" transform="translate(0 -1)"><path id="Shape" d="m3.41 53h11.649c.5227105 4.5425323 4.3684924 7.9711565 8.941 7.9711565s8.4182895-3.4286242 8.941-7.9711565h11.649c1.1828216.0115793 2.257869-.6854294 2.73-1.77.4948455-1.1045593.2814461-2.3979488-.542-3.285-2.7918041-2.9982872-4.4772873-6.859236-4.778-10.945v-4.527c6.0916768-1.5575128 10.7045999-6.5413267 11.7873118-12.7350419 1.0827119-6.1937151-1.5658918-12.4469031-6.7679248-15.97864835-5.2020331-3.53174525-11.9912635-3.68605699-17.348387-.39430975-1.4946663-1.51993067-3.5392968-2.37261116-5.671-2.365-4.4162219.00495988-7.9950401 3.58377808-8 8 .0000935.29268224.0164521.58513313.049.876-6.14437276 3.0252389-10.039586 9.2752557-10.049 16.124v11c-.29001903 4.0896766-1.97773941 7.9551918-4.78 10.948-.8222438.8865401-1.03485641 2.1787523-.54 3.282.472131 1.0845706 1.54717836 1.7815793 2.73 1.77zm20.59 6c-3.478237-.004328-6.4274337-2.5581135-6.929-6h13.858c-.5015663 3.4418865-3.450763 5.995672-6.929 6zm28-42c-.0082673 7.7285595-6.2714405 13.9917327-14 14-1.8141395.0051942-3.6115871-.3464803-5.29-1.035-.2230012-.0912395-.4712734-.0997516-.7-.024l-7.36 2.459 2.23-6.14c.1148451-.3158242.0633764-.6682156-.137-.938-1.7912581-2.4038409-2.7538252-5.3241776-2.743-8.322.0000002-7.73198638 6.2680136-13.9999997 14-13.9999997s13.9999998 6.26801332 14 13.9999997zm-34-8c.0033074-3.31233757 2.6876624-5.99669262 6-6 1.4753094-.00249914 2.8984647.54558144 3.991 1.537-1.2439841.99757566-2.3328692 2.17442087-3.231 3.492-.254-.011-.505-.029-.76-.029-2.0452784.0039054-4.0747228.35871993-6 1.049 0-.016 0-.032 0-.049zm-15.3 40.3c3.15087677-3.3539313 5.0262931-7.7063126 5.3-12.3v-11c.01323041-8.6829917 6.9454959-15.7727482 15.626-15.981-2.5368992 5.1733733-2.0802399 11.3137974 1.194 16.055l-2.048 5.637c-.2250755.6123247-.1373594 1.2959409.235017 1.8316053s.9826066.8560459 1.634983.8583947c.2153109.0006518.4293428-.0331072.634-.1l7.024-2.347c2.4495986.9448655 5.0978982 1.2568145 7.7.907v4.139c.2750432 4.5910076 2.1504032 8.9404274 5.3 12.292.2857513.3032643.3610945.7486174.191 1.129-.1524203.3596872-.5094893.5894016-.9.579h-41.181c-.39051069.0104016-.74757971-.2193128-.9-.579-.1676002-.3779077-.09276664-.8194257.19-1.121z"/><path id="Shape" d="m7 49h4c.5522847 0 1-.4477153 1-1s-.4477153-1-1-1h-4c-.55228475 0-1 .4477153-1 1s.44771525 1 1 1z"/><path id="Shape" d="m14 48c0 .5522847.4477153 1 1 1h26c.5522847 0 1-.4477153 1-1s-.4477153-1-1-1h-26c-.5522847 0-1 .4477153-1 1z"/><path id="Shape" d="m11 27c.5522847 0 1-.4477153 1-1-.00465-3.6464724 1.655319-7.0956582 4.508-9.367.2863768-.2209808.4310919-.5793891.3784392-.9372604-.0526527-.3578712-.2944643-.6594108-.6323526-.7885451s-.7191741-.0657303-.9970866.1658055c-3.3276808 2.6495128-5.2635679 6.673374-5.257 10.927 0 .2652165.1053568.5195704.2928932.7071068s.4418903.2928932.7071068.2928932z"/><path id="Shape" d="m27 17c0 1.6568542 1.3431458 3 3 3s3-1.3431458 3-3-1.3431458-3-3-3-3 1.3431458-3 3zm3-1c.5522847 0 1 .4477153 1 1s-.4477153 1-1 1-1-.4477153-1-1 .4477153-1 1-1z"/><path id="Shape" d="m38 20c1.6568542 0 3-1.3431458 3-3s-1.3431458-3-3-3-3 1.3431458-3 3 1.3431458 3 3 3zm0-4c.5522847 0 1 .4477153 1 1s-.4477153 1-1 1-1-.4477153-1-1 .4477153-1 1-1z"/><path id="Shape" d="m46 20c1.6568542 0 3-1.3431458 3-3s-1.3431458-3-3-3-3 1.3431458-3 3 1.3431458 3 3 3zm0-4c.5522847 0 1 .4477153 1 1s-.4477153 1-1 1-1-.4477153-1-1 .4477153-1 1-1z"/></g></g></svg>